PathFileType	4	(X/Y/Z)	C:\Users\Basilio\Documents\Thesis Gigler\squatting_fais\c3dfiles\040\SJ_pre1\markers_experimental.trc
DataRate	CameraRate	NumFrames	NumMarkers	Units	OrigDataRate	OrigDataStartFrame	OrigNumFrames
200.000000	200.000000	4	62	mm	200.000000	733	1174
Frame#	Time	FHD			LBHD			RBHD			C7			T10			CLAV			LSHO			LUUPA			LMUPA			LDUPA			LLEP			LMEP			LRAD			LUL			LRFIN			RSHO			RUPA1			RMUPA			RDUPA			RLEP			RMEP			RRAD			RUL			RUFIN			LASI			RASI			USACR			LSACR			RSACR			LTHI1			LTHI2			LTHI3			LTHI4			LLFC			LMFC			LTIB1			LTIB2			LTIB3			LTIB4			LLMAL			LMMAL			LHEE			LMT1			LMT2			LMT5			RTHI			RTHI2			RTHI3			RTHI4			RLFC			RMFC			RTIB1			RTIB2			RTIB3			RTIB4			RLMAL			RMMAL			RHEE			RMT1			RMT2			RMT5			*61			
		X1	Y1	Z1	X2	Y2	Z2	X3	Y3	Z3	X4	Y4	Z4	X5	Y5	Z5	X6	Y6	Z6	X7	Y7	Z7	X8	Y8	Z8	X9	Y9	Z9	X10	Y10	Z10	X11	Y11	Z11	X12	Y12	Z12	X13	Y13	Z13	X14	Y14	Z14	X15	Y15	Z15	X16	Y16	Z16	X17	Y17	Z17	X18	Y18	Z18	X19	Y19	Z19	X20	Y20	Z20	X21	Y21	Z21	X22	Y22	Z22	X23	Y23	Z23	X24	Y24	Z24	X25	Y25	Z25	X26	Y26	Z26	X27	Y27	Z27	X28	Y28	Z28	X29	Y29	Z29	X30	Y30	Z30	X31	Y31	Z31	X32	Y32	Z32	X33	Y33	Z33	X34	Y34	Z34	X35	Y35	Z35	X36	Y36	Z36	X37	Y37	Z37	X38	Y38	Z38	X39	Y39	Z39	X40	Y40	Z40	X41	Y41	Z41	X42	Y42	Z42	X43	Y43	Z43	X44	Y44	Z44	X45	Y45	Z45	X46	Y46	Z46	X47	Y47	Z47	X48	Y48	Z48	X49	Y49	Z49	X50	Y50	Z50	X51	Y51	Z51	X52	Y52	Z52	X53	Y53	Z53	X54	Y54	Z54	X55	Y55	Z55	X56	Y56	Z56	X57	Y57	Z57	X58	Y58	Z58	X59	Y59	Z59	X60	Y60	Z60	X61	Y61	Z61	X62	Y62	Z62	

734	3.665	-223.9209442138672	2155.659912109375	-910.0047607421877	-338.4719848632813	2089.46240234375	-960.6267089843752	-395.9648742675782	2045.015747070313	-833.1840820312502	-375.1715393066407	1931.631225585938	-901.448669433594	-327.0550537109376	1611.986450195313	-912.1167602539065	-237.5990447998047	1888.833740234375	-877.0272216796877	-235.8477630615235	1947.256958007813	-1048.379028320313	-246.0780181884766	1820.19140625	-1220.9853515625	-228.4990386962891	1774.242553710938	-1211.510009765625	-254.938705444336	1766.594604492188	-1265.782104492188	-275.0493469238282	1716.478515625	-1309.306030273438	-348.0032653808594	1715.059326171875	-1286.3134765625	-306.6833190917969	1491.854125976563	-1114.270874023438	-255.8415069580079	1461.95263671875	-1160.851806640625	-253.5556640625001	1503.208618164063	-1068.108764648438	-300.4415588378907	1919.61181640625	-712.0616455078126	-429.1143188476564	1822.614868164063	-589.2170410156251	-407.4324035644532	1783.160766601563	-568.0917358398439	-463.5016479492189	1778.355346679688	-546.6595458984376	-484.645965576172	1716.7529296875	-508.3985595703126	-532.0191650390626	1694.206909179688	-577.2329101562501	-313.8249816894532	1566.488159179688	-688.4601440429689	-314.1927185058594	1515.974365234375	-631.5064697265626	-236.1324157714844	1546.089477539063	-709.2572021484376	-146.2141723632813	1447.409545898438	-986.2959594726565	-165.3029174804688	1462.131958007813	-761.1713867187501	-328.7982482910157	1494.58544921875	-895.8532714843752	-331.3849487304688	1462.32421875	-920.7581176757815	-340.4651489257813	1467.739990234375	-865.8072509765627	-262.6197814941407	1187.9482421875	-1081.7392578125	-224.811264038086	1113.039306640625	-1093.823974609375	-178.5321197509766	1115.901611328125	-1091.38134765625	-249.6305541992188	1059.480102539063	-1089.901977539063	-238.0694427490235	929.699157714844	-1099.806396484375	-243.5073547363282	889.901794433594	-974.677917480469	-250.0078430175782	701.0182495117189	-1103.663940429688	-326.8359680175782	687.2623901367189	-1146.319213867188	-286.1804199218751	668.7086791992189	-1137.176391601563	-295.7307434082032	584.3491821289064	-1117.61865234375	-379.9303588867188	514.5611572265626	-1141.629760742188	-341.9547119140626	500.2407226562501	-1061.956176757813	-448.5931396484376	496.129364013672	-1095.726806640625	-274.6640014648438	360.2226562500001	-1097.533081054688	-273.0811157226563	365.8884582519532	-1143.914794921875	-328.9596557617188	380.7885131835938	-1186.495971679688	-226.5674743652344	1191.244384765625	-670.2797241210939	-194.9857482910157	1130.568481445313	-665.5435180664064	-161.6473846435547	1131.212524414063	-668.4584350585939	-227.5357360839844	1056.337890625	-667.0790405273439	-226.4851837158204	924.2391357421877	-656.4315795898439	-227.9170837402344	901.227478027344	-787.6451416015627	-228.6092376708985	729.3617553710939	-655.5600585937501	-318.3470153808594	682.9075927734376	-621.5261230468751	-276.9246215820313	663.5925292968751	-629.6749877929689	-276.9955139160157	610.0834350585939	-656.8060913085939	-361.9961853027344	518.8484497070314	-621.4423828125001	-344.6833496093751	520.0349121093751	-707.6173095703126	-438.7060852050782	505.0688781738282	-672.2011718750001	-256.1742858886719	381.8714599609376	-697.5544433593751	-256.4299621582032	381.9206237792969	-657.4857788085939	-301.0779113769532	377.2358093261719	-604.1693115234376	nan	nan	nan	
735	3.67	-223.053939819336	2147.548583984375	-909.9719848632815	-338.1681213378907	2081.765380859375	-960.5720214843752	-395.6802673339845	2037.148071289063	-833.255065917969	-375.1923217773438	1924.054931640625	-901.5689086914065	-327.6068420410157	1604.190307617188	-912.3494873046877	-237.7092437744141	1880.989379882813	-877.3116455078127	-236.0059814453126	1939.57763671875	-1048.715942382813	-247.0608367919922	1812.726196289063	-1221.372924804688	-229.3376922607422	1766.860595703125	-1212.08154296875	-256.1005249023438	1759.073364257813	-1266.172729492188	-276.2515563964844	1708.783325195313	-1309.526123046875	-349.1087036132813	1707.272583007813	-1286.240478515625	-307.5497436523438	1484.03955078125	-1114.6064453125	-256.5215759277344	1454.33642578125	-1161.445678710938	-254.3800201416016	1495.525390625	-1068.485473632813	-300.5284118652344	1911.569580078125	-712.1886596679689	-429.2454528808595	1814.795166015625	-589.4359130859376	-407.8684387207032	1775.20654296875	-568.3262329101564	-463.9795837402345	1770.47607421875	-546.8659667968751	-485.1637573242189	1708.656127929688	-508.9973754882814	-532.9677124023439	1686.805297851563	-577.7420043945314	-314.7184143066407	1558.109497070313	-689.0248413085939	-315.0629882812501	1507.786987304688	-632.1013183593751	-236.8128814697266	1537.648803710938	-709.5729980468751	-146.8531036376953	1439.809448242188	-986.7540283203127	-165.8464813232422	1454.385009765625	-761.6140136718751	-329.5567321777344	1486.678588867188	-896.270690917969	-333.0709228515626	1454.781005859375	-921.452087402344	-340.9195556640626	1459.699096679688	-866.1895751953127	-262.1930541992188	1179.907104492188	-1082.229248046875	-224.1661682128907	1105.372680664063	-1094.368774414063	-177.9184265136719	1108.316040039063	-1091.896606445313	-248.8836822509766	1051.767578125	-1090.497436523438	-236.9370727539063	922.0518798828127	-1100.459594726563	-241.4442138671876	882.3020629882815	-975.387634277344	-249.3753509521485	693.6456298828126	-1104.852416992188	-326.0267333984376	679.8147583007814	-1147.068359375	-286.0385437011719	661.0528564453126	-1137.930786132813	-294.6089782714844	575.9048461914064	-1118.445556640625	-379.5742492675782	507.1490783691407	-1142.621704101563	-341.4745788574219	492.9353332519532	-1063.30517578125	-448.160369873047	487.8483886718751	-1096.563110351563	-273.5224609375001	353.3163146972657	-1099.733642578125	-272.8652954101563	358.8177795410157	-1145.371215820313	-328.6901855468751	373.6729431152344	-1187.998901367188	-226.5830383300782	1183.532592773438	-670.0473022460939	-194.8200378417969	1123.658203125	-664.8908081054689	-161.4381256103516	1123.495727539063	-668.0479736328126	-227.1555175781251	1048.869384765625	-666.7567749023439	-225.8891754150391	916.579284667969	-655.9304809570314	-226.3652801513672	893.479431152344	-786.881286621094	-228.6688537597657	722.0036621093751	-654.5274658203126	-318.7345886230469	675.4074096679689	-621.3469848632814	-277.5973205566407	656.3753662109376	-629.1089477539064	-277.4781188964844	602.5150146484376	-655.7647094726564	-362.9590148925782	511.9864196777345	-621.1066284179689	-345.2390441894532	513.0352172851564	-707.2418823242189	-439.5089721679689	497.3493957519532	-672.8983154296876	-255.9405822753907	374.8932495117188	-694.3909912109376	-256.0454406738282	375.8665466308594	-654.0389404296876	-301.8009338378907	371.5564880371094	-601.2203979492189	nan	nan	nan	
736	3.675	-223.0641479492188	2139.50341796875	-909.6199951171877	-338.0091247558594	2073.879638671875	-960.5415649414065	-395.8658142089845	2029.116455078125	-833.2607421875002	-375.7603149414063	1916.31103515625	-901.8482055664065	-328.3386230468751	1596.360107421875	-912.483825683594	-237.7659912109376	1872.617797851563	-877.2290649414065	-236.2742462158204	1931.375366210938	-1048.828125	-248.122543334961	1804.85205078125	-1221.6884765625	-230.1166992187501	1758.846923828125	-1212.356689453125	-257.4620666503907	1751.180053710938	-1266.2041015625	-277.4506225585938	1700.81494140625	-1309.583862304688	-350.0228881835938	1699.238525390625	-1286.08837890625	-308.2707824707032	1475.814819335938	-1114.794311523438	-257.5102844238282	1446.2060546875	-1161.598510742188	-255.0904846191407	1487.511962890625	-1068.795288085938	-300.5881958007813	1903.3525390625	-712.1894531250001	-429.8417968750001	1806.643310546875	-589.7345581054689	-408.4987792968751	1767.00146484375	-568.7497558593751	-464.4297485351564	1762.354370117188	-547.2813110351564	-485.833221435547	1700.826782226563	-509.6206359863282	-533.4731445312501	1678.956420898438	-578.2380981445314	-315.5332336425782	1549.848999023438	-689.3861083984376	-316.0914306640626	1499.3330078125	-632.5110473632814	-237.6445922851563	1529.688232421875	-709.8485717773439	-147.1488037109375	1431.654174804688	-987.2401123046877	-166.2967529296875	1446.148559570313	-761.7750854492189	-329.9234619140626	1478.629516601563	-896.5742797851565	-332.3588867187501	1445.934936523438	-921.3951416015627	-341.2328796386719	1451.310791015625	-866.5144042968752	-261.7683105468751	1171.86962890625	-1082.632080078125	-223.3411254882813	1097.280883789063	-1094.795043945313	-177.2483215332032	1100.445678710938	-1092.515258789063	-247.8653259277344	1043.456665039063	-1091.175659179688	-235.506820678711	914.0010375976565	-1101.190307617188	-240.6273498535157	874.0089111328127	-976.5808105468752	-248.0432739257813	685.3507690429689	-1106.14990234375	-325.6129150390626	672.1254882812501	-1147.902099609375	-284.9082946777344	652.8711547851564	-1139.261108398438	-294.4637756347657	568.7628173828126	-1119.974609375	-379.0752563476563	499.2705688476564	-1143.468994140625	-340.6969299316407	485.3402099609376	-1064.400512695313	-447.5919494628907	480.0585937500001	-1097.266479492188	-272.6157226562501	345.6832275390626	-1101.369262695313	-271.5057678222657	351.3434753417969	-1147.36181640625	-327.5520019531251	366.0436401367188	-1189.538940429688	-226.1848144531251	1175.788940429688	-669.9541015625001	-194.2274780273438	1115.757080078125	-664.7130737304689	-161.1177520751953	1115.820190429688	-667.7822875976564	-226.5230102539063	1040.774536132813	-665.9279174804689	-224.9804229736329	908.9519653320315	-655.2140502929689	-224.6958618164063	885.3354492187502	-786.1218261718752	-228.951644897461	714.3220214843751	-653.2900390625001	-319.7125854492188	668.1546630859376	-621.1275634765626	-278.3290710449219	648.6924438476564	-628.1335449218751	-277.8775634765626	595.0264282226564	-654.9567871093751	-364.0458679199219	505.0027465820314	-620.9832153320314	-345.0263366699219	505.2337341308595	-706.6615600585939	-440.0929565429689	489.3791809082032	-673.7228393554689	-255.574203491211	367.7351074218751	-690.8417968750001	-256.1363525390626	369.4671630859376	-650.6788940429689	-302.8562622070313	365.2147521972657	-598.8244628906251	nan	nan	nan	
737	3.68	-223.7313537597657	2131.850341796875	-909.5928344726565	-337.5751953125001	2065.660400390625	-960.4663696289065	-395.4109191894532	2020.871459960938	-833.2825317382815	-375.0798645019532	1907.94384765625	-901.5440063476565	-328.7008972167969	1588.15478515625	-912.7315673828127	-237.7892303466797	1864.34228515625	-877.4790039062502	-236.3439636230469	1923.053100585938	-1048.929321289063	-249.4365386962891	1796.76708984375	-1221.759033203125	-230.7584075927735	1750.848999023438	-1212.980712890625	-258.4794006347657	1743.111206054688	-1266.546752929688	-278.4705505371094	1692.803100585938	-1309.8369140625	-351.0100097656251	1690.955200195313	-1286.09521484375	-309.0711364746094	1467.64404296875	-1115.101318359375	-258.5221862792969	1438.096557617188	-1161.980834960938	-255.9231109619141	1479.238159179688	-1069.136840820313	-300.3818664550782	1894.874389648438	-712.3571166992189	-430.1806945800782	1798.257934570313	-589.8890380859376	-408.8596191406251	1758.320190429688	-568.9633789062501	-464.9136962890626	1753.99072265625	-547.6289062500001	-486.141815185547	1692.19140625	-509.6706848144532	-534.1583862304689	1670.750732421875	-578.7917480468751	-316.1726989746094	1541.311645507813	-689.7257690429689	-316.9211425781251	1490.641235351563	-633.0485229492189	-238.6403045654297	1521.42919921875	-710.2812500000001	-147.6034240722657	1423.235229492188	-987.8305664062502	-166.7518005371094	1437.949096679688	-762.0722045898439	-330.3016662597657	1469.555786132813	-896.780456542969	-333.3651123046876	1437.548950195313	-921.6372680664065	-342.0208740234376	1442.827026367188	-866.8441162109377	-261.2158813476563	1163.469482421875	-1082.9931640625	-222.7071228027344	1089.06591796875	-1095.330078125	-176.8015441894532	1092.441284179688	-1093.082397460938	-247.0733489990235	1035.290893554688	-1091.761962890625	-234.5423583984376	905.7983398437502	-1102.018920898438	-238.6472473144532	865.1035156250002	-977.4892578125002	-247.4789276123047	677.2404174804689	-1107.053833007813	-324.8738098144532	664.0499267578126	-1148.725341796875	-284.2463378906251	644.9071044921876	-1140.320678710938	-293.4181213378907	560.2441406250001	-1121.00390625	-378.5951232910157	491.4498901367189	-1144.552368164063	-339.6214904785157	477.1721191406251	-1065.51123046875	-447.1858825683595	471.6480712890626	-1097.945068359375	-270.5549926757813	339.0626831054688	-1103.362426757813	-270.4734497070313	344.3380432128907	-1148.669555664063	-328.1252746582032	357.9803161621094	-1190.447875976563	-226.078109741211	1167.4638671875	-669.8721923828126	-194.2608184814454	1107.60400390625	-664.0902099609376	-160.6287384033203	1107.747192382813	-667.5024414062501	-225.9277648925782	1032.94677734375	-665.5742797851564	-224.7676544189454	900.7722167968752	-654.5567016601564	-222.9471130371094	877.0344848632815	-785.3433837890627	-228.873519897461	706.6922607421876	-651.9992065429689	-320.0530395507813	660.4395751953126	-620.9003906250001	-278.5984497070313	641.2214965820314	-627.6512451171876	-278.4998474121094	587.4774169921876	-653.9894409179689	-365.2738037109376	497.7292480468751	-620.6688842773439	-344.6684570312501	496.7376403808595	-706.3398437500001	-440.7110290527345	481.1924743652345	-674.5480346679689	-255.3970642089844	360.3229980468751	-687.4137573242189	-256.5849304199219	362.4881591796876	-647.2816162109376	-303.6322631835938	359.3024291992188	-595.6176757812501	nan	nan	nan	
